{
    "asset": {
        "generator": "Microsoft Simplygon glTF Exporter (Microsoft::glTF)",
        "version": "2.0"
    },
    "accessors": [
        {
            "bufferView": 0,
            "componentType": 5126,
            "count": 2551,
            "type": "VEC3",
            "max": [
                609.6019287109375,
                1872.3597412109376,
                587.8348999023438
            ],
            "min": [
                -948.2103881835938,
                330.9209899902344,
                -618.001953125
            ]
        },
        {
            "bufferView": 1,
            "componentType": 5126,
            "count": 2551,
            "type": "VEC3",
            "max": [
                0.9991583228111267,
                0.9997976422309876,
                0.999886155128479
            ],
            "min": [
                -0.9999958872795105,
                -0.9999896287918091,
                -0.9995954632759094
            ]
        },
        {
            "bufferView": 2,
            "componentType": 5123,
            "count": 14997,
            "type": "SCALAR"
        }
    ],
    "bufferViews": [
        {
            "buffer": 0,
            "byteOffset": 0,
            "byteLength": 30612,
            "target": 34962
        },
        {
            "buffer": 0,
            "byteOffset": 30612,
            "byteLength": 30612,
            "target": 34962
        },
        {
            "buffer": 0,
            "byteOffset": 61224,
            "byteLength": 29994,
            "target": 34963
        }
    ],
    "buffers": [
        {
            "byteLength": 91218,
            "uri": "ReductionOutput_0.bin"
        }
    ],
    "materials": [
        {
            "pbrMetallicRoughness": {},
            "name": "material-0"
        }
    ],
    "meshes": [
        {
            "primitives": [
                {
                    "attributes": {
                        "NORMAL": 1,
                        "POSITION": 0
                    },
                    "indices": 2,
                    "material": 0
                }
            ]
        }
    ],
    "nodes": [
        {
            "mesh": 0
        }
    ],
    "samplers": [
        {}
    ],
    "scenes": [
        {
            "nodes": [
                0
            ],
            "name": "cascade-scene-0"
        }
    ],
    "scene": 0
}